<?xml version="1.0" standalone="no"?>
<!DOCTYPE svg PUBLIC "-//W3C//DTD SVG 20010904//EN"
 "http://www.w3.org/TR/2001/REC-SVG-20010904/DTD/svg10.dtd">
<svg version="1.0" xmlns="http://www.w3.org/2000/svg"
 width="312.000000pt" height="312.000000pt" viewBox="0 0 312.000000 312.000000"
 preserveAspectRatio="xMidYMid meet">
<metadata>
Created by potrace 1.14, written by Peter Selinger 2001-2017
</metadata>
<g transform="translate(0.000000,312.000000) scale(0.100000,-0.100000)"
fill="#000000" stroke="none">
<path d="M1335 3076 c-82 -10 -132 -22 -195 -48 -137 -57 -208 -98 -253 -145
-17 -18 -35 -33 -42 -33 -18 0 -115 -102 -137 -145 -11 -22 -30 -52 -41 -67
-15 -21 -21 -48 -25 -110 -2 -46 -10 -90 -17 -98 -36 -42 -38 -108 -8 -195 49
-140 49 -134 9 -213 -20 -39 -36 -78 -36 -86 0 -9 -15 -23 -32 -32 -18 -9 -46
-27 -61 -40 -16 -13 -41 -27 -55 -31 -15 -3 -47 -19 -72 -34 -25 -15 -57 -31
-72 -34 -28 -7 -39 -25 -15 -25 6 0 29 -5 49 -10 30 -9 39 -17 49 -48 6 -20
15 -41 20 -46 15 -17 10 -45 -10 -56 -26 -13 -46 -5 -59 26 -7 13 -17 24 -23
24 -6 0 -9 -3 -7 -7 32 -67 47 -91 65 -106 20 -16 22 -25 17 -80 -6 -74 -6
-87 2 -152 5 -47 3 -53 -32 -97 -31 -40 -42 -48 -70 -48 -19 0 -34 -4 -34 -9
0 -34 98 -40 158 -9 52 26 66 23 106 -24 44 -51 45 -77 6 -106 -16 -13 -30
-29 -30 -37 0 -25 -43 -17 -84 16 -34 29 -37 35 -31 65 3 20 2 34 -4 34 -21 0
-41 -46 -41 -93 0 -40 5 -54 27 -76 16 -14 36 -36 47 -48 18 -22 18 -22 -7
-34 -18 -8 -30 -8 -47 1 -21 11 -22 10 -15 -6 4 -11 13 -32 19 -49 21 -56 45
-73 113 -77 35 -2 65 -7 68 -10 3 -3 -4 -24 -16 -47 -36 -71 -8 -115 49 -75
33 23 82 35 101 24 20 -10 46 -82 38 -103 -3 -8 -26 -18 -51 -21 -25 -4 -48
-11 -50 -15 -3 -4 -31 -13 -63 -20 -32 -7 -66 -17 -75 -22 -28 -14 -170 -49
-179 -43 -5 3 -19 -1 -31 -7 -13 -7 -36 -14 -53 -16 -16 -1 -69 -8 -117 -14
l-88 -12 0 -39 c0 -31 3 -38 20 -38 11 0 20 -7 20 -15 0 -8 -9 -15 -20 -15
-19 0 -20 -7 -20 -100 l0 -100 1422 0 c1233 0 1420 2 1402 14 -11 8 -36 16
-55 18 -27 2 -35 8 -37 26 -2 14 -14 27 -28 32 -14 6 -41 21 -62 35 -26 18
-50 25 -84 25 -47 0 -50 2 -128 81 -88 88 -112 133 -108 194 3 39 4 40 43 43
22 1 68 16 103 33 62 30 62 30 62 74 0 50 20 64 57 39 23 -14 26 -14 42 0 22
20 31 20 31 0 0 -9 -10 -24 -22 -33 -23 -19 -20 -51 6 -51 40 0 126 122 126
179 0 10 9 30 20 44 22 28 26 68 9 95 -9 14 -7 27 10 60 11 23 21 50 21 60 0
10 12 52 26 93 49 135 53 173 39 357 -8 101 -7 103 14 109 17 4 19 8 10 19
-16 19 -4 44 21 44 13 0 18 4 15 11 -4 6 1 16 11 23 16 12 16 14 -4 34 -13 13
-35 22 -51 22 -27 0 -61 21 -61 39 0 4 -15 11 -32 16 -22 7 -39 21 -50 44 -9
19 -22 39 -27 44 -6 6 -11 17 -11 24 0 16 32 17 47 2 21 -21 23 8 3 34 -24 30
-25 41 -5 57 11 9 14 22 10 40 -3 15 1 48 10 75 18 50 17 60 -10 165 -9 36
-17 82 -16 103 0 40 -32 90 -113 177 -24 25 -52 71 -65 105 -16 41 -38 74 -70
103 -61 58 -173 130 -236 152 -27 10 -66 25 -85 33 -19 8 -65 18 -102 22 -37
3 -70 10 -73 15 -3 5 -22 14 -43 21 -20 6 -44 17 -52 24 -46 38 -132 75 -174
75 -24 0 -56 4 -70 9 -66 26 -216 33 -351 17z m164 -183 c23 -19 27 -40 15
-85 -7 -32 8 -37 32 -13 18 17 24 18 43 6 22 -14 4 -29 -44 -37 -64 -9 -61
-23 8 -38 15 -4 27 -11 27 -17 0 -21 -34 -21 -77 0 -45 21 -47 22 -93 5 -47
-17 -87 -14 -75 6 3 5 16 10 28 10 26 0 54 16 45 26 -4 3 -22 9 -40 13 -19 4
-34 14 -36 24 -4 22 31 23 52 2 20 -21 28 -4 20 43 -5 34 -3 42 17 56 30 21
51 20 78 -1z m-12 -482 c25 -25 75 -41 96 -29 24 13 52 2 89 -35 17 -18 25
-24 18 -14 -12 16 -12 20 0 27 10 6 22 2 37 -12 13 -12 29 -18 38 -14 15 5 81
-19 158 -59 16 -8 37 -15 47 -15 9 0 23 -7 30 -15 9 -11 22 -14 40 -10 18 4
31 0 41 -12 25 -32 39 -62 39 -87 0 -14 5 -28 11 -32 7 -4 9 -27 5 -68 -4 -33
-7 -72 -7 -86 -1 -14 -6 -28 -12 -32 -7 -4 -104 -8 -216 -8 l-205 0 -63 68
c-35 37 -71 81 -80 97 -13 26 -63 103 -133 206 -10 14 -30 49 -45 78 -33 62
-27 71 47 71 33 0 53 -6 65 -19z m-185 -22 c14 -6 40 -43 66 -94 49 -96 219
-355 262 -400 21 -22 27 -34 20 -45 -13 -20 -13 -177 0 -185 6 -3 7 -17 4 -31
-4 -14 -2 -24 4 -24 6 0 19 -16 28 -35 19 -42 64 -81 119 -106 57 -26 185 -25
243 1 51 23 62 19 115 -40 38 -41 47 -79 25 -98 -7 -6 -22 -34 -33 -63 -11
-28 -27 -54 -36 -56 -20 -6 -23 -78 -3 -94 7 -6 10 -18 7 -27 -6 -21 -43 -102
-55 -122 -5 -8 -14 -27 -20 -42 -14 -31 -36 -44 -52 -28 -16 16 -9 94 13 142
11 24 22 59 25 78 4 19 15 46 25 59 21 28 25 23 -99 108 -30 21 -69 49 -86 63
-18 14 -44 34 -58 45 -15 11 -47 37 -72 58 -25 20 -50 37 -56 37 -5 0 -23 9
-39 21 -32 22 -34 18 -23 -40 6 -29 10 -31 34 -26 33 7 97 -21 105 -46 3 -9
19 -22 35 -29 17 -7 30 -16 30 -21 0 -4 16 -24 35 -45 37 -39 42 -66 13 -72
-19 -4 -87 53 -98 82 -7 19 -14 21 -76 17 -53 -2 -75 -8 -100 -28 -36 -27 -50
-29 -114 -13 -25 7 -65 14 -89 17 -42 5 -44 4 -38 -19 7 -28 -15 -54 -70 -82
-29 -15 -33 -14 -55 3 l-23 20 33 33 c17 19 32 39 32 44 0 6 9 19 20 29 45 41
13 48 -35 8 -18 -16 -53 -44 -78 -63 -50 -38 -58 -63 -27 -80 16 -9 18 -15 10
-36 -14 -36 -12 -76 5 -118 17 -41 36 -46 50 -13 13 29 47 33 70 7 23 -25 41
-26 55 0 10 19 21 20 220 20 l210 0 0 -29 c0 -25 -4 -29 -37 -35 -21 -3 -60
-6 -87 -6 -41 0 -47 -2 -37 -14 8 -10 23 -13 47 -9 33 6 34 5 34 -31 0 -31 -4
-36 -27 -41 -16 -3 -42 -10 -59 -15 -17 -6 -54 -10 -82 -10 -57 0 -64 -9 -29
-34 22 -15 22 -16 3 -31 -11 -8 -30 -15 -43 -15 -29 0 -30 -25 -2 -41 33 -17
175 -12 246 8 77 23 113 52 113 93 l0 29 -46 -24 c-53 -28 -84 -32 -84 -11 0
15 46 56 62 56 16 0 68 43 68 57 0 19 80 103 98 103 26 0 41 -33 42 -88 0 -48
-4 -57 -31 -83 -17 -16 -28 -33 -24 -39 4 -6 1 -27 -6 -48 -7 -20 -12 -42 -11
-49 3 -12 -36 -42 -80 -61 -16 -6 -28 -16 -28 -22 0 -12 -74 -90 -86 -90 -4 0
-25 -12 -45 -26 -34 -23 -44 -25 -89 -19 -34 5 -54 13 -61 26 -8 15 -19 19
-61 17 -47 -2 -53 0 -83 35 -18 20 -37 37 -43 37 -14 0 -32 33 -32 58 0 11
-10 26 -21 34 -12 8 -27 29 -33 48 -15 47 -44 52 -48 8 -2 -25 -8 -34 -26 -36
-14 -2 -24 3 -28 15 -12 36 -38 89 -62 127 -17 27 -22 47 -18 67 3 16 1 31 -4
34 -16 10 -70 96 -70 112 0 8 -11 24 -24 34 -14 11 -28 34 -31 52 -4 17 -17
51 -30 74 -17 32 -25 66 -30 140 -4 54 -16 123 -26 153 -22 64 -26 150 -6 150
22 0 37 -22 37 -55 0 -17 6 -39 13 -50 26 -35 32 7 30 210 -2 111 2 231 8 270
14 87 48 165 72 165 9 0 17 -7 17 -15 0 -8 5 -15 10 -15 6 0 10 6 10 14 0 7 6
19 14 25 7 6 16 25 19 41 7 31 49 66 67 55 5 -3 10 -17 10 -31 0 -28 30 -34
30 -6 1 24 20 45 55 58 40 16 59 16 87 3z m920 -811 c0 -24 0 -51 0 -61 -1
-10 3 -27 8 -37 16 -29 -4 -33 -50 -10 -46 23 -59 45 -42 69 7 9 20 31 29 49
10 18 24 32 35 32 14 0 18 -9 20 -42z m-588 -428 c4 -4 -3 -16 -17 -25 -25
-16 -56 -17 -202 -4 -16 1 -40 -3 -52 -9 -31 -17 -73 -15 -73 3 0 19 46 38 73
29 12 -4 23 -1 28 7 7 12 12 12 29 1 17 -11 23 -10 37 4 14 13 29 15 92 9 42
-4 80 -10 85 -15z m1146 -235 c0 -8 -7 -15 -15 -15 -16 0 -20 12 -8 23 11 12
23 8 23 -8z m-2204 -332 c-11 -11 -19 6 -11 24 8 17 8 17 12 0 3 -10 2 -21 -1
-24z m877 -285 c26 -31 16 -43 -37 -42 -37 0 -53 6 -73 26 -36 37 -23 51 41
43 33 -4 57 -14 69 -27z m165 10 c-3 -7 -11 -13 -18 -13 -7 0 -15 6 -17 13 -3
7 4 12 17 12 13 0 20 -5 18 -12z m-1458 -38 c0 -5 -4 -10 -10 -10 -5 0 -10 5
-10 10 0 6 5 10 10 10 6 0 10 -4 10 -10z m1470 -20 c0 -5 -4 -10 -10 -10 -5 0
-10 5 -10 10 0 6 5 10 10 10 6 0 10 -4 10 -10z m-90 -26 c0 -9 -7 -14 -17 -12
-25 5 -28 28 -4 28 12 0 21 -6 21 -16z m114 -30 c19 -19 21 -34 3 -34 -22 0
-51 26 -43 38 10 16 22 15 40 -4z"/>
<path d="M1439 2816 c13 -6 29 -5 44 1 19 9 16 10 -21 9 -35 -1 -39 -2 -23
-10z"/>
<path d="M1171 1868 c-19 -5 -43 -7 -54 -4 -10 2 -38 -4 -61 -14 -22 -10 -48
-21 -58 -24 -21 -6 -34 -62 -18 -81 13 -16 40 -20 40 -7 0 5 17 18 39 30 44
25 117 29 146 8 34 -25 7 -48 -94 -77 -24 -7 -23 18 1 26 l23 8 -24 4 c-17 3
-33 -5 -57 -28 -48 -46 -45 -69 7 -69 22 0 50 5 61 11 25 13 137 29 156 22 44
-17 -41 -73 -110 -73 -21 0 -38 -4 -38 -10 0 -29 130 -20 203 15 18 8 51 33
72 55 34 35 39 46 43 100 5 69 -6 90 -48 90 -15 0 -33 7 -40 15 -14 17 -133
20 -189 3z"/>
<path d="M1611 1554 c0 -11 3 -14 6 -6 3 7 2 16 -1 19 -3 4 -6 -2 -5 -13z"/>
<path d="M1460 990 c0 -5 5 -10 11 -10 5 0 7 5 4 10 -3 6 -8 10 -11 10 -2 0
-4 -4 -4 -10z"/>
<path d="M94 3028 c-6 -10 -5 -2620 1 -2626 3 -3 11 0 17 6 7 7 23 12 37 12
13 0 38 4 55 9 17 5 71 17 120 26 107 20 132 32 111 55 -7 8 -15 33 -17 55 -3
36 -6 40 -38 46 -44 9 -101 73 -117 132 -7 23 -15 94 -19 157 -6 115 -6 115
-40 146 -30 28 -34 38 -34 81 0 39 5 54 23 71 13 12 30 22 39 22 9 0 26 8 38
18 20 16 23 28 24 121 2 75 -2 105 -11 113 -24 20 -63 114 -63 153 0 25 -8 47
-25 67 -14 16 -25 42 -25 58 0 36 41 86 77 94 16 4 53 23 85 42 31 18 63 34
71 34 30 0 100 68 128 126 35 70 35 73 7 121 -21 34 -23 51 -23 159 0 98 3
126 16 140 11 13 18 46 22 97 4 61 12 88 34 125 15 26 34 59 41 73 24 48 178
190 260 239 13 8 24 19 23 24 -1 10 -811 14 -817 4z"/>
<path d="M2040 3030 c0 -14 52 -30 95 -30 25 0 75 -13 118 -30 42 -16 82 -30
89 -30 8 0 55 -26 104 -59 113 -75 205 -169 230 -236 10 -27 37 -70 60 -95 77
-84 114 -140 114 -173 0 -18 9 -70 21 -117 18 -76 19 -103 13 -262 l-7 -177
31 -30 c17 -18 41 -31 55 -31 13 0 32 -9 42 -20 10 -11 20 -18 22 -16 4 4 5
1298 0 1302 -6 6 -987 10 -987 4z"/>
<path d="M3005 1498 c-15 -35 -18 -72 -19 -198 -1 -147 -3 -160 -34 -249 -17
-51 -32 -106 -32 -122 0 -15 -4 -31 -10 -34 -5 -3 -10 -39 -10 -79 0 -58 -4
-79 -20 -99 -11 -14 -20 -32 -20 -41 0 -36 -50 -125 -98 -174 l-52 -53 -69 2
c-60 2 -75 -2 -126 -30 -32 -17 -67 -31 -77 -31 -10 0 -18 -3 -18 -8 0 -4 30
-37 68 -74 58 -57 73 -66 114 -72 48 -6 130 -49 183 -96 17 -15 48 -32 70 -38
51 -14 164 -22 170 -12 6 10 9 1440 3 1446 -3 2 -13 -15 -23 -38z"/>
</g>
</svg>
